<svg width="29" height="40" viewBox="0 0 29 40" fill="none" xmlns="http://www.w3.org/2000/svg">
<path fill-rule="evenodd" clip-rule="evenodd" d="M17.5106 18.6448H11.4566C6.54808 18.6448 2.39042 22.2626 1.71208 27.124C0.886419 33.0412 5.48203 38.3226 11.4566 38.3226H17.5106C23.5754 38.3226 28.1961 32.8888 27.2217 26.9028C26.4466 22.1418 22.3343 18.6448 17.5106 18.6448ZM11.4566 17.6448C6.04919 17.6448 1.46896 21.6303 0.721675 26.9858C-0.187904 33.5044 4.87479 39.3226 11.4566 39.3226H17.5106C24.1918 39.3226 29.2822 33.3366 28.2087 26.7421C27.3549 21.4972 22.8246 17.6448 17.5106 17.6448H11.4566Z" fill="white"/>
<path fill-rule="evenodd" clip-rule="evenodd" d="M14.6286 14.1241C18.2527 14.1241 21.1906 11.1861 21.1906 7.56204C21.1906 3.93792 18.2527 1 14.6286 1C11.0045 1 8.06657 3.93792 8.06657 7.56204C8.06657 11.1861 11.0045 14.1241 14.6286 14.1241ZM14.6286 15.1241C18.805 15.1241 22.1906 11.7384 22.1906 7.56204C22.1906 3.38564 18.805 0 14.6286 0C10.4522 0 7.06657 3.38564 7.06657 7.56204C7.06657 11.7384 10.4522 15.1241 14.6286 15.1241Z" fill="white"/>
</svg>
