<svg width="31" height="39" viewBox="0 0 31 39" fill="none" xmlns="http://www.w3.org/2000/svg">
<path fill-rule="evenodd" clip-rule="evenodd" d="M30 1H1L1 38H30V1ZM1 0C0.447715 0 0 0.447715 0 1V38C0 38.5523 0.447716 39 1 39H30C30.5523 39 31 38.5523 31 38V1C31 0.447715 30.5523 0 30 0H1Z" fill="white"/>
<path d="M15.5 28.5C17.3667 26.3961 24.8333 19.6636 25.6033 17.7468C25.86 17.139 26 16.461 26 15.7597C26 12.861 23.6433 10.5 20.75 10.5C18.37 10.5 16.6667 12.3701 15.5 14.0065C14.3333 12.3701 12.63 10.5 10.25 10.5C7.35667 10.5 5 12.861 5 15.7597C5 16.461 5.14 17.139 5.39667 17.7468C6.16667 19.6636 13.6333 26.3961 15.5 28.5ZM10.25 11.4351C11.79 11.4351 13.2367 12.4169 14.73 14.5442C14.9167 14.8013 15.1967 14.9416 15.5 14.9416C15.8033 14.9416 16.0833 14.8013 16.27 14.5442C17.7633 12.4169 19.21 11.4351 20.75 11.4351C23.13 11.4351 25.0667 13.3753 25.0667 15.7597C25.0667 16.3208 24.95 16.8818 24.74 17.3961C24.2967 18.4948 20.4 22.3052 18.0667 24.5727C17.0633 25.5545 16.1533 26.4429 15.5 27.1208C14.8233 26.4429 13.9367 25.5545 12.9333 24.5727C10.6 22.3052 6.70333 18.4948 6.26 17.3727C6.05 16.8584 5.93333 16.2974 5.93333 15.7364C5.93333 13.3753 7.87 11.4351 10.25 11.4351Z" fill="white"/>
</svg>
