<svg width="32" height="39" viewBox="0 0 32 39" fill="none" xmlns="http://www.w3.org/2000/svg">
<path d="M1 39H4.75H29.75C30.0261 39 30.25 38.7732 30.25 38.4935V23.8052H31C31.2761 23.8052 31.5 23.5784 31.5 23.2987V15.7013C31.5 15.4216 31.2761 15.1948 31 15.1948H30.25V0.506494C30.25 0.226784 30.0261 0 29.75 0H4.75H1C0.723877 0 0.5 0.226784 0.5 0.506494V38.4935C0.5 38.7732 0.723877 39 1 39ZM30.25 16.2078H30.5V22.7922H30.25H29.25H25.0176L22.8508 19.5L25.0176 16.2078H29.25H30.25ZM5.25 1.01299H29.25V15.1948H24.75C24.5828 15.1948 24.4268 15.2794 24.334 15.4204L21.834 19.2191C21.7219 19.3892 21.7219 19.6108 21.834 19.7809L24.334 23.5796C24.4268 23.7206 24.5828 23.8052 24.75 23.8052H29.25V37.987H5.25V1.01299ZM1.5 1.01299H4.25V37.987H1.5V1.01299Z" fill="white"/>
</svg>
