<svg width="31" height="39" viewBox="0 0 31 39" fill="none" xmlns="http://www.w3.org/2000/svg">
<path fill-rule="evenodd" clip-rule="evenodd" d="M30 1H1L1 18H30V1ZM1 0C0.447715 0 0 0.447715 0 1V18C0 18.5523 0.447716 19 1 19H30C30.5523 19 31 18.5523 31 18V1C31 0.447715 30.5523 0 30 0H1Z" fill="white"/>
<path fill-rule="evenodd" clip-rule="evenodd" d="M30 21H1L1 38H30V21ZM1 20C0.447715 20 0 20.4477 0 21V38C0 38.5523 0.447716 39 1 39H30C30.5523 39 31 38.5523 31 38V21C31 20.4477 30.5523 20 30 20H1Z" fill="white"/>
</svg>
